<?xml version="1.0" encoding="UTF-8" standalone="no"?>
<!-- Generator: Adobe Illustrator 15.1.0, SVG Export Plug-In . SVG Version: 6.00 Build 0)  -->

<svg
   xmlns:dc="http://purl.org/dc/elements/1.1/"
   xmlns:cc="http://creativecommons.org/ns#"
   xmlns:rdf="http://www.w3.org/1999/02/22-rdf-syntax-ns#"
   xmlns:svg="http://www.w3.org/2000/svg"
   xmlns="http://www.w3.org/2000/svg"
   xmlns:xlink="http://www.w3.org/1999/xlink"
   xmlns:sodipodi="http://sodipodi.sourceforge.net/DTD/sodipodi-0.dtd"
   xmlns:inkscape="http://www.inkscape.org/namespaces/inkscape"
   version="1.1"
   id="Layer_1"
   x="0px"
   y="0px"
   width="2763.7795"
   height="2125.9841"
   viewBox="0 0 2763.7796 2125.9841"
   enable-background="new 0 0 2267.72 1700.79"
   xml:space="preserve"
   inkscape:version="0.48.4 r9939"
   sodipodi:docname="NVFP-01.dxf"><metadata
     id="metadata10269"><rdf:RDF><cc:Work
         rdf:about=""><dc:format>image/svg+xml</dc:format><dc:type
           rdf:resource="http://purl.org/dc/dcmitype/StillImage" /><dc:title></dc:title></cc:Work></rdf:RDF></metadata><defs
     id="defs10267" /><sodipodi:namedview
     pagecolor="#ffffff"
     bordercolor="#666666"
     borderopacity="1"
     objecttolerance="10"
     gridtolerance="10"
     guidetolerance="10"
     inkscape:pageopacity="0"
     inkscape:pageshadow="2"
     inkscape:window-width="1417"
     inkscape:window-height="941"
     id="namedview10265"
     showgrid="false"
     units="mm"
     inkscape:document-units="mm"
     inkscape:zoom="0.51505477"
     inkscape:cx="158.07385"
     inkscape:cy="718.39211"
     inkscape:window-x="1407"
     inkscape:window-y="24"
     inkscape:window-maximized="0"
     inkscape:current-layer="Layer_1" /><g
     id="g9605"
     transform="matrix(1.2074009,0,0,1.2074009,-8.7151947,81.164046)"><path
       stroke-miterlimit="10"
       d="m 2225.198,1615.748 c 0,23.482 -19.036,42.52 -42.52,42.52 H 85.041 c -23.483,0 -42.52,-19.037 -42.52,-42.52 V 85.039 c 0,-23.483 19.037,-42.52 42.52,-42.52 h 2097.638 c 23.483,0 42.52,19.037 42.52,42.52 v 1530.709 z"
       id="path9607"
       inkscape:connector-curvature="0"
       style="fill:none;stroke:#000000;stroke-miterlimit:10" /><rect
       x="42.521"
       y="1488.188"
       stroke-miterlimit="10"
       width="2182.677"
       height="85.039001"
       id="rect9609"
       style="fill:none;stroke:#000000;stroke-miterlimit:10" /></g><text
     id="text9611"
     x="73.832634"
     y="1938.6019"
     style="font-size:14.48881149px"><tspan
       x="73.832634"
       y="1938.6019"
       stroke-miterlimit="10"
       font-size="24"
       id="tspan9613"
       style="font-size:28.97762299px;fill:none;stroke:#f68827;stroke-width:1.20740092;stroke-miterlimit:10;font-family:Eng_HelvLine">Date: 15-07-15    File Name:   NRFP-01     Version: 01     Contributor: Stuart Childs stuchilds@gmail.com</tspan><tspan
       x="73.832634"
       y="2042.9211"
       stroke-miterlimit="10"
       font-size="36"
       id="tspan9641"
       style="font-size:43.46643448px;fill:none;stroke:#f68827;stroke-width:1.20740092;stroke-miterlimit:10;font-family:Eng_HelvLine">License: Creative Commons Attribution 4.0 International License</tspan></text>
<rect
     x="2614.7568"
     y="1824.4413"
     stroke-miterlimit="10"
     width="34.226196"
     height="34.226196"
     id="rect9647"
     style="fill:none;stroke:#f68827;stroke-width:1.20740092;stroke-miterlimit:10" /><g
     id="g9649"
     transform="matrix(1.2074009,0,0,1.2074009,-8.7151947,81.164046)"><path
       stroke-miterlimit="10"
       d="m 1830.944,1460.075 c 0,2.881 2.197,4.033 4.771,4.033 2.611,0 4.249,-1.639 4.304,-3.241 0.054,-1.585 -0.757,-2.845 -2.359,-3.188 l -4.411,-0.954 c -1.242,-0.27 -1.98,-0.99 -1.98,-2.683 0,-1.693 1.423,-3.15 4.016,-3.15 2.593,0 4.483,1.224 4.411,3.366 0.072,-2.143 -1.818,-3.366 -4.411,-3.366 -2.593,0 -4.016,1.458 -4.016,3.15 0,1.692 0.702,2.395 1.98,2.683 l 4.411,0.954 c 1.639,0.343 2.413,1.603 2.359,3.188 -0.055,1.603 -1.692,3.241 -4.304,3.241 -2.573,0 -4.771,-1.152 -4.771,-4.033 z"
       id="path9651"
       inkscape:connector-curvature="0"
       style="fill:none;stroke:#f68827;stroke-miterlimit:10" /><path
       stroke-miterlimit="10"
       d="m 1851.719,1461.065 c -0.054,1.512 -1.674,2.935 -3.205,2.935 -1.512,0 -4.123,-0.252 -4.123,-4.771 0,-4.501 2.917,-4.556 4.195,-4.556 1.278,0 2.971,0.99 3.079,2.251 -0.108,-1.261 -1.801,-2.251 -3.079,-2.251 -1.278,0 -4.195,0.055 -4.195,4.556 0,4.52 2.611,4.771 4.123,4.771 1.531,0 3.151,-1.423 3.205,-2.935 z"
       id="path9653"
       inkscape:connector-curvature="0"
       style="fill:none;stroke:#f68827;stroke-miterlimit:10" /><path
       stroke-miterlimit="10"
       d="m 1858.629,1464.108 c -1.494,-0.055 -2.683,-0.522 -2.683,-2.179 0,-1.675 1.009,-2.377 2.917,-2.557 1.891,-0.181 2.737,-0.469 3.637,-0.721 -0.899,0.252 -1.746,0.54 -3.637,0.721 -1.908,0.18 -2.917,0.882 -2.917,2.557 0,1.657 1.189,2.125 2.683,2.179 1.477,0.054 3.331,-1.692 3.871,-2.467 -0.54,0.775 -2.395,2.521 -3.871,2.467 z m 3.871,-1.278 v -5.924 c 0,-0.757 -0.378,-2.197 -2.809,-2.197 -2.431,0 -3.331,1.099 -3.331,2.232 0,-1.134 0.9,-2.232 3.331,-2.232 2.431,0 2.809,1.44 2.809,2.197 v 5.924 c 0,1.08 1.279,1.17 1.279,1.17 0,0 -1.279,-0.09 -1.279,-1.17 z"
       id="path9655"
       inkscape:connector-curvature="0"
       style="fill:none;stroke:#f68827;stroke-miterlimit:10" /><path
       stroke-miterlimit="10"
       d="M 1869.986,1464 V 1451.019 1464 z"
       id="path9657"
       inkscape:connector-curvature="0"
       style="fill:none;stroke:#f68827;stroke-miterlimit:10" /><path
       stroke-miterlimit="10"
       d="m 1875.999,1459.066 h 8.048 c 0,-1.998 -0.792,-4.556 -3.655,-4.556 -2.845,0 -4.411,1.945 -4.411,4.916 0,2.989 2.017,4.573 4.411,4.501 2.413,-0.072 3.457,-1.944 3.583,-2.61 -0.126,0.666 -1.17,2.538 -3.583,2.61 -2.395,0.072 -4.411,-1.512 -4.411,-4.501 0,-2.971 1.566,-4.916 4.411,-4.916 2.863,0 3.655,2.558 3.655,4.556 h -8.048 z"
       id="path9659"
       inkscape:connector-curvature="0"
       style="fill:none;stroke:#f68827;stroke-miterlimit:10" /><path
       stroke-miterlimit="10"
       d="m 1890.436,1458.311 v -0.99 0.99 z m 0,5.689 v -0.99 0.99 z"
       id="path9661"
       inkscape:connector-curvature="0"
       style="fill:none;stroke:#f68827;stroke-miterlimit:10" /><path
       stroke-miterlimit="10"
       d="m 1911.693,1456.42 c 0.036,-0.45 -0.558,-1.711 -2.826,-1.801 -2.269,-0.054 -3.313,0.666 -3.313,2.053 0,1.404 1.171,1.837 1.603,1.963 l 3.403,1.008 c 0.45,0.108 1.53,0.595 1.53,1.927 0,1.332 -1.422,2.431 -3.223,2.431 -1.801,0 -3.439,-0.954 -3.439,-2.358 0,1.404 1.639,2.358 3.439,2.358 1.8,0 3.223,-1.099 3.223,-2.431 0,-1.332 -1.08,-1.818 -1.53,-1.927 l -3.403,-1.008 c -0.432,-0.126 -1.603,-0.559 -1.603,-1.963 0,-1.387 1.045,-2.106 3.313,-2.053 2.269,0.09 2.862,1.351 2.826,1.801 z"
       id="path9663"
       inkscape:connector-curvature="0"
       style="fill:none;stroke:#f68827;stroke-miterlimit:10" /><path
       stroke-miterlimit="10"
       d="m 1916.265,1459.337 c 0,-3.638 1.729,-4.718 3.817,-4.718 2.106,0 3.816,1.08 3.816,4.718 0,3.655 -1.71,4.699 -3.816,4.699 -2.089,0 -3.817,-1.044 -3.817,-4.699 z m 0,0 c 0,-3.638 1.729,-4.718 3.817,-4.718 2.106,0 3.816,1.08 3.816,4.718 0,3.655 -1.71,4.699 -3.816,4.699 -2.089,0 -3.817,-1.044 -3.817,-4.699 z m 7.67,-4.718 v 13.018 -13.018 z"
       id="path9665"
       inkscape:connector-curvature="0"
       style="fill:none;stroke:#f68827;stroke-miterlimit:10" /><path
       stroke-miterlimit="10"
       d="m 1931.133,1454.728 c 0,0 0,6.031 0,6.859 0,0.829 0.828,2.377 3.114,2.396 2.305,0.018 3.529,-1.765 3.529,-3.422 0,1.657 -1.225,3.439 -3.529,3.422 -2.286,-0.019 -3.114,-1.566 -3.114,-2.396 0,-0.828 0,-6.859 0,-6.859 z m 6.643,0 v 9.255 -9.255 z"
       id="path9667"
       inkscape:connector-curvature="0"
       style="fill:none;stroke:#f68827;stroke-miterlimit:10" /><path
       stroke-miterlimit="10"
       d="m 1950.609,1461.642 c -0.54,0.774 -2.395,2.521 -3.871,2.467 -1.494,-0.055 -2.683,-0.522 -2.683,-2.179 0,-1.675 1.009,-2.377 2.917,-2.557 1.891,-0.181 2.737,-0.469 3.637,-0.721 -0.899,0.252 -1.746,0.54 -3.637,0.721 -1.908,0.18 -2.917,0.882 -2.917,2.557 0,1.656 1.188,2.124 2.683,2.179 1.477,0.053 3.331,-1.693 3.871,-2.467 z m 1.28,2.358 c 0,0 -1.279,-0.09 -1.279,-1.17 v -5.924 c 0,-0.757 -0.378,-2.197 -2.809,-2.197 -2.431,0 -3.331,1.099 -3.331,2.232 0,-1.134 0.9,-2.232 3.331,-2.232 2.431,0 2.809,1.44 2.809,2.197 v 5.924 c -10e-4,1.08 1.279,1.17 1.279,1.17 z"
       id="path9669"
       inkscape:connector-curvature="0"
       style="fill:none;stroke:#f68827;stroke-miterlimit:10" /><path
       stroke-miterlimit="10"
       d="m 1961.68,1454.764 c -1.675,-0.019 -3.584,2.448 -3.529,4.519 -0.055,-2.071 1.854,-4.538 3.529,-4.519 z m -3.53,0 v 9.236 -9.236 z"
       id="path9671"
       inkscape:connector-curvature="0"
       style="fill:none;stroke:#f68827;stroke-miterlimit:10" /><path
       stroke-miterlimit="10"
       d="m 1965.836,1459.066 h 8.048 c 0,-1.998 -0.792,-4.556 -3.655,-4.556 -2.845,0 -4.411,1.945 -4.411,4.916 0,2.989 2.017,4.573 4.411,4.501 2.413,-0.072 3.457,-1.944 3.584,-2.61 -0.127,0.666 -1.171,2.538 -3.584,2.61 -2.395,0.072 -4.411,-1.512 -4.411,-4.501 0,-2.971 1.566,-4.916 4.411,-4.916 2.863,0 3.655,2.558 3.655,4.556 h -8.048 z"
       id="path9673"
       inkscape:connector-curvature="0"
       style="fill:none;stroke:#f68827;stroke-miterlimit:10" /><path
       stroke-miterlimit="10"
       d="m 1989.29,1451.324 v -0.324 0.324 z m 0,12.658 v -9.237 c 0,0 0,9.273 0,9.237 z"
       id="path9675"
       inkscape:connector-curvature="0"
       style="fill:none;stroke:#f68827;stroke-miterlimit:10" /><path
       stroke-miterlimit="10"
       d="m 1998.723,1454.619 c -2.269,-0.054 -3.313,0.666 -3.313,2.053 0,1.404 1.171,1.837 1.603,1.963 l 3.403,1.008 c 0.45,0.108 1.53,0.595 1.53,1.927 0,1.332 -1.422,2.431 -3.223,2.431 -1.801,0 -3.439,-0.954 -3.439,-2.358 0,1.404 1.639,2.358 3.439,2.358 1.8,0 3.223,-1.099 3.223,-2.431 0,-1.332 -1.08,-1.818 -1.53,-1.927 l -3.403,-1.008 c -0.432,-0.126 -1.603,-0.559 -1.603,-1.963 -10e-4,-1.387 1.044,-2.107 3.313,-2.053 2.269,0.09 2.862,1.351 2.826,1.801 0.036,-0.45 -0.558,-1.711 -2.826,-1.801 z"
       id="path9677"
       inkscape:connector-curvature="0"
       style="fill:none;stroke:#f68827;stroke-miterlimit:10" /><path
       stroke-miterlimit="10"
       d="m 2018.198,1464 v -12.981 c 0,2.214 -2.143,2.736 -3.062,2.809 0.919,-0.072 3.062,-0.595 3.062,-2.809 V 1464 z"
       id="path9679"
       inkscape:connector-curvature="0"
       style="fill:none;stroke:#f68827;stroke-miterlimit:10" /><path
       stroke-miterlimit="10"
       d="m 2024.245,1457.518 c 0,-3.564 0.757,-6.481 3.926,-6.481 3.169,0 3.925,2.917 3.925,6.481 0,3.584 -0.756,6.482 -3.925,6.482 -3.169,0 -3.926,-2.898 -3.926,-6.482 z m 0,0 c 0,-3.564 0.757,-6.481 3.926,-6.481 3.169,0 3.925,2.917 3.925,6.481 0,3.584 -0.756,6.482 -3.925,6.482 -3.169,0 -3.926,-2.898 -3.926,-6.482 z"
       id="path9681"
       inkscape:connector-curvature="0"
       style="fill:none;stroke:#f68827;stroke-miterlimit:10" /><path
       stroke-miterlimit="10"
       d="m 2044.443,1464 c 0,0 0,-6.014 0,-6.842 0,-0.828 -0.54,-2.377 -2.827,-2.395 -2.287,-0.019 -3.313,1.764 -3.313,3.421 0,-1.657 1.026,-3.439 3.313,-3.421 2.287,0.018 2.827,1.566 2.827,2.395 0,0.829 0,6.842 0,6.842 z m -6.14,0 v -9.236 9.236 z m 12.334,0 c 0,0 0,-6.014 0,-6.842 0,-0.828 -0.792,-2.377 -3.079,-2.395 -2.286,-0.019 -3.114,1.764 -3.114,3.421 0,-1.657 0.828,-3.439 3.114,-3.421 2.287,0.018 3.079,1.566 3.079,2.395 0,0.829 0,6.842 0,6.842 z"
       id="path9683"
       inkscape:connector-curvature="0"
       style="fill:none;stroke:#f68827;stroke-miterlimit:10" /><path
       stroke-miterlimit="10"
       d="m 2064.207,1464 c 0,0 0,-6.014 0,-6.842 0,-0.828 -0.54,-2.377 -2.827,-2.395 -2.287,-0.019 -3.313,1.764 -3.313,3.421 0,-1.657 1.026,-3.439 3.313,-3.421 2.287,0.018 2.827,1.566 2.827,2.395 0,0.829 0,6.842 0,6.842 z m -6.141,0 v -9.236 9.236 z m 12.334,0 c 0,0 0,-6.014 0,-6.842 0,-0.828 -0.792,-2.377 -3.079,-2.395 -2.286,-0.019 -3.114,1.764 -3.114,3.421 0,-1.657 0.828,-3.439 3.114,-3.421 2.287,0.018 3.079,1.566 3.079,2.395 0,0.829 0,6.842 0,6.842 z"
       id="path9685"
       inkscape:connector-curvature="0"
       style="fill:none;stroke:#f68827;stroke-miterlimit:10" /><path
       stroke-miterlimit="10"
       d="m 2084.886,1464 3.709,-5.149 -2.952,-4.087 2.952,4.087 2.972,-4.087 -2.972,4.087 3.728,5.149 -3.728,-5.149 -3.709,5.149 z"
       id="path9687"
       inkscape:connector-curvature="0"
       style="fill:none;stroke:#f68827;stroke-miterlimit:10" /><path
       stroke-miterlimit="10"
       d="m 2108.63,1464 v -12.981 c 0,2.214 -2.143,2.736 -3.062,2.809 0.919,-0.072 3.062,-0.595 3.062,-2.809 V 1464 z"
       id="path9689"
       inkscape:connector-curvature="0"
       style="fill:none;stroke:#f68827;stroke-miterlimit:10" /><path
       stroke-miterlimit="10"
       d="m 2114.676,1457.518 c 0,-3.564 0.757,-6.481 3.926,-6.481 3.169,0 3.925,2.917 3.925,6.481 0,3.584 -0.756,6.482 -3.925,6.482 -3.169,0 -3.926,-2.898 -3.926,-6.482 z m 0,0 c 0,-3.564 0.757,-6.481 3.926,-6.481 3.169,0 3.925,2.917 3.925,6.481 0,3.584 -0.756,6.482 -3.925,6.482 -3.169,0 -3.926,-2.898 -3.926,-6.482 z"
       id="path9691"
       inkscape:connector-curvature="0"
       style="fill:none;stroke:#f68827;stroke-miterlimit:10" /><path
       stroke-miterlimit="10"
       d="m 2134.875,1457.158 c 0,-0.828 -0.54,-2.377 -2.827,-2.395 -2.287,-0.019 -3.313,1.764 -3.313,3.421 0,-1.657 1.026,-3.439 3.313,-3.421 2.287,0.018 2.827,1.567 2.827,2.395 0,0.828 0,6.842 0,6.842 0,0 0,-6.014 0,-6.842 z m -6.141,-2.394 v 9.236 -9.236 z m 12.334,2.394 c 0,-0.828 -0.792,-2.377 -3.079,-2.395 -2.286,-0.019 -3.114,1.764 -3.114,3.421 0,-1.657 0.828,-3.439 3.114,-3.421 2.287,0.018 3.079,1.567 3.079,2.395 0,0.828 0,6.842 0,6.842 0,0 0,-6.014 0,-6.842 z"
       id="path9693"
       inkscape:connector-curvature="0"
       style="fill:none;stroke:#f68827;stroke-miterlimit:10" /><path
       stroke-miterlimit="10"
       d="m 2154.639,1457.158 c 0,-0.828 -0.54,-2.377 -2.827,-2.395 -2.287,-0.019 -3.313,1.764 -3.313,3.421 0,-1.657 1.026,-3.439 3.313,-3.421 2.287,0.018 2.827,1.567 2.827,2.395 0,0.828 0,6.842 0,6.842 0,0 0,-6.014 0,-6.842 z m -6.141,-2.394 v 9.236 -9.236 z m 12.334,2.394 c 0,-0.828 -0.792,-2.377 -3.079,-2.395 -2.286,-0.019 -3.114,1.764 -3.114,3.421 0,-1.657 0.828,-3.439 3.114,-3.421 2.287,0.018 3.079,1.567 3.079,2.395 0,0.828 0,6.842 0,6.842 0,0 0,-6.014 0,-6.842 z"
       id="path9695"
       inkscape:connector-curvature="0"
       style="fill:none;stroke:#f68827;stroke-miterlimit:10" /></g><path
     stroke-miterlimit="10"
     d="m 166.11888,1527.3611 h -9.1521 v -15.6732 15.6732 h 9.1521 z"
     id="path9697"
     inkscape:connector-curvature="0"
     style="fill:none;stroke:#000000;stroke-width:1.20740092;stroke-miterlimit:10" /><path
     stroke-miterlimit="10"
     d="m 179.26626,1524.5141 c -0.65199,0.9345 -2.89172,3.0438 -4.67384,2.9786 -1.80507,-0.065 -3.23946,-0.6302 -3.23946,-2.6309 0,-2.0212 1.21706,-2.87 3.52199,-3.0873 2.28319,-0.2173 3.30465,-0.5663 4.39131,-0.8705 -1.08666,0.3042 -2.10933,0.6532 -4.39131,0.8705 -2.30493,0.2173 -3.52199,1.0661 -3.52199,3.0873 0,1.9995 1.43439,2.5657 3.23946,2.6309 1.78212,0.064 4.02185,-2.0441 4.67384,-2.9786 z m 1.54306,2.847 c 0,0 -1.54306,-0.1086 -1.54306,-1.4126 v -7.1527 c 0,-0.9128 -0.45639,-2.6514 -3.39158,-2.6514 -2.9352,0 -4.02186,1.3269 -4.02186,2.6949 0,-1.3692 1.08666,-2.6949 4.02186,-2.6949 2.93519,0 3.39158,1.7386 3.39158,2.6514 v 7.1527 c 0,1.3052 1.54306,1.4126 1.54306,1.4126 z"
     id="path9699"
     inkscape:connector-curvature="0"
     style="fill:none;stroke:#000000;stroke-width:1.20740092;stroke-miterlimit:10" /><path
     stroke-miterlimit="10"
     d="m 193.52325,1518.209 c 0.0435,-0.5421 -0.67373,-2.0646 -3.41332,-2.1745 -2.73959,-0.065 -4.00012,0.8053 -4.00012,2.4788 0,1.6952 1.41266,2.218 1.93547,2.3701 l 4.10878,1.2171 c 0.54333,0.1304 1.84733,0.7184 1.84733,2.3279 0,1.6082 -1.71693,2.9339 -3.89146,2.9339 -2.17453,0 -4.15225,-1.1506 -4.15225,-2.847 0,1.6964 1.97772,2.847 4.15225,2.847 2.17332,0 3.89146,-1.3257 3.89146,-2.9339 0,-1.6095 -1.304,-2.1963 -1.84733,-2.3279 l -4.10878,-1.2171 c -0.52281,-0.1521 -1.93547,-0.6749 -1.93547,-2.3701 0,-1.6735 1.26053,-2.5428 4.00012,-2.4788 2.73839,0.1099 3.45679,1.6324 3.41332,2.1745 z"
     id="path9701"
     inkscape:connector-curvature="0"
     style="fill:none;stroke:#000000;stroke-width:1.20740092;stroke-miterlimit:10" /><path
     stroke-miterlimit="10"
     d="m 208.80171,1521.405 c 0,-2.4124 -0.95627,-5.4997 -4.41305,-5.4997 -3.43506,0 -5.32706,2.3472 -5.32706,5.9356 0,3.6077 2.43533,5.5202 5.32706,5.4345 2.91345,-0.087 4.17398,-2.3472 4.32611,-3.1513 -0.15213,0.8041 -1.41266,3.0644 -4.32611,3.1513 -2.89173,0.086 -5.32706,-1.8268 -5.32706,-5.4345 0,-3.5884 1.892,-5.9356 5.32706,-5.9356 3.45678,0 4.41305,3.0873 4.41305,5.4997 h -9.71717 9.71717 z"
     id="path9703"
     inkscape:connector-curvature="0"
     style="fill:none;stroke:#000000;stroke-width:1.20740092;stroke-miterlimit:10" /><path
     stroke-miterlimit="10"
     d="m 216.57978,1521.667 c -0.0652,-2.4993 2.23852,-5.4779 4.26092,-5.4574 -2.02119,-0.022 -4.32612,2.9569 -4.26092,5.4574 z m 0,5.6941 v -11.1515 11.1515 z"
     id="path9705"
     inkscape:connector-curvature="0"
     style="fill:none;stroke:#000000;stroke-width:1.20740092;stroke-miterlimit:10" /><path
     stroke-miterlimit="10"
     d="m 236.70353,1522.6233 c 0,3.4785 2.65266,4.8694 5.76051,4.8694 3.15253,0 5.13146,-1.9777 5.19666,-3.9131 0.0652,-1.9126 -0.9128,-3.4351 -2.84826,-3.848 l -5.32705,-1.1519 c -1.4996,-0.3272 -2.39066,-1.1953 -2.39066,-3.2407 0,-2.0417 1.71693,-3.8033 4.84772,-3.8033 3.13079,0 5.41278,1.4791 5.32705,4.0654 0.0869,-2.5875 -2.19626,-4.0654 -5.32705,-4.0654 -3.13079,0 -4.84772,1.7616 -4.84772,3.8033 0,2.0442 0.8476,2.893 2.39066,3.2407 l 5.32705,1.1519 c 1.97772,0.4129 2.91346,1.9354 2.84826,3.848 -0.0652,1.9366 -2.04413,3.9131 -5.19666,3.9131 -3.10785,0 -5.76051,-1.3921 -5.76051,-4.8694 z"
     id="path9707"
     inkscape:connector-curvature="0"
     style="fill:none;stroke:#000000;stroke-width:1.20740092;stroke-miterlimit:10" /><path
     stroke-miterlimit="10"
     d="m 252.95998,1521.405 h 9.71837 c 0,-2.4124 -0.95626,-5.4997 -4.41305,-5.4997 -3.43506,0 -5.32585,2.3472 -5.32585,5.9356 0,3.6077 2.43533,5.5202 5.32585,5.4345 2.91346,-0.087 4.17399,-2.3472 4.32612,-3.1513 -0.15213,0.8041 -1.41266,3.0644 -4.32612,3.1513 -2.89173,0.086 -5.32585,-1.8268 -5.32585,-5.4345 0,-3.5884 1.89079,-5.9356 5.32585,-5.9356 3.45679,0 4.41305,3.0873 4.41305,5.4997 h -9.71837 z"
     id="path9709"
     inkscape:connector-curvature="0"
     style="fill:none;stroke:#000000;stroke-width:1.20740092;stroke-miterlimit:10" /><path
     stroke-miterlimit="10"
     d="m 268.04283,1516.1009 h 4.54345 -4.54345 z m 4.49999,11.1528 c -1.06493,0.066 -2.218,0.1086 -2.218,-1.3475 0,-1.4778 0,-13.9129 0,-13.9129 0,0 0,12.4363 0,13.9129 0,1.4549 1.15307,1.4127 2.218,1.3475 z"
     id="path9711"
     inkscape:connector-curvature="0"
     style="fill:none;stroke:#000000;stroke-width:1.20740092;stroke-miterlimit:10" /><path
     stroke-miterlimit="10"
     d="m 277.47505,1516.1009 h 4.54345 -4.54345 z m 4.49998,11.1528 c -1.06493,0.066 -2.21799,0.1086 -2.21799,-1.3475 0,-1.4778 0,-13.9129 0,-13.9129 0,0 0,12.4363 0,13.9129 0,1.4549 1.15306,1.4127 2.21799,1.3475 z"
     id="path9713"
     inkscape:connector-curvature="0"
     style="fill:none;stroke:#000000;stroke-width:1.20740092;stroke-miterlimit:10" /><path
     stroke-miterlimit="10"
     d="m 289.27739,1512.0573 v -0.3912 0.3912 z m 0,15.2833 v -11.1515 c 0,0 0,11.195 0,11.1515 z"
     id="path9715"
     inkscape:connector-curvature="0"
     style="fill:none;stroke:#000000;stroke-width:1.20740092;stroke-miterlimit:10" /><path
     stroke-miterlimit="10"
     d="m 306.86077,1527.3611 c 0,0 0,-7.2613 0,-8.261 0,-0.9997 -0.99973,-2.87 -3.76105,-2.8917 -2.78306,-0.022 -4.23919,2.131 -4.23919,4.1305 0,-1.9995 1.45734,-4.151 4.23919,-4.1305 2.76132,0.022 3.76105,1.8908 3.76105,2.8917 0,1.0009 0,8.261 0,8.261 z m -8.00024,0 v -11.1515 11.1515 z"
     id="path9717"
     inkscape:connector-curvature="0"
     style="fill:none;stroke:#000000;stroke-width:1.20740092;stroke-miterlimit:10" /><path
     stroke-miterlimit="10"
     d="m 317.72617,1516.1009 c 2.52226,0 4.60865,1.2605 4.60865,5.6096 0,4.3479 -2.08759,5.6096 -4.60865,5.6096 -2.52105,0 -4.58691,-1.2617 -4.58691,-5.6096 0,-4.3491 2.06465,-5.6096 4.58691,-5.6096 z m 0,0 c 2.52226,0 4.60865,1.2605 4.60865,5.6096 0,4.3479 -2.08759,5.6096 -4.60865,5.6096 -2.52105,0 -4.58691,-1.2617 -4.58691,-5.6096 0,-4.3491 2.06465,-5.6096 4.58691,-5.6096 z m -3.93492,13.5217 c 0.23907,1.304 1.82559,2.0429 4.00012,2.1311 2.21679,0.065 4.54345,-1.5648 4.54345,-3.5884 0,-2.0417 0,-11.8905 0,-11.8905 0,0 0,9.8475 0,11.8905 0,2.0236 -2.32666,3.6524 -4.54345,3.5884 -2.17453,-0.087 -3.76105,-0.8271 -4.00012,-2.1311 z"
     id="path9719"
     inkscape:connector-curvature="0"
     style="fill:none;stroke:#000000;stroke-width:1.20740092;stroke-miterlimit:10" /><path
     stroke-miterlimit="10"
     d="m 335.02581,1518.209 c 0.0435,-0.5421 -0.67373,-2.0646 -3.41332,-2.1745 -2.73959,-0.065 -4.00012,0.8053 -4.00012,2.4788 0,1.6952 1.41266,2.218 1.93426,2.3701 l 4.10878,1.2171 c 0.54333,0.1304 1.84733,0.7184 1.84733,2.3279 0,1.6082 -1.71693,2.9339 -3.89146,2.9339 -2.17452,0 -4.15225,-1.1506 -4.15225,-2.847 0,1.6964 1.97893,2.847 4.15225,2.847 2.17333,0 3.89146,-1.3257 3.89146,-2.9339 0,-1.6095 -1.304,-2.1963 -1.84733,-2.3279 l -4.10878,-1.2171 c -0.5216,-0.1521 -1.93426,-0.6749 -1.93426,-2.3701 0,-1.6735 1.26053,-2.5428 4.00012,-2.4788 2.73959,0.1099 3.45679,1.6324 3.41332,2.1745 z"
     id="path9721"
     inkscape:connector-curvature="0"
     style="fill:none;stroke:#000000;stroke-width:1.20740092;stroke-miterlimit:10" /><path
     stroke-miterlimit="22.9256"
     d="m 154.61838,1597.6452 c 0,-6.002 3.10906,-8.1307 6.91358,-8.1307 3.80452,0 6.91358,2.1299 6.91358,8.1307 0,5.9995 -3.10906,8.0859 -6.91358,8.0859 -3.80452,0 -6.91358,-2.0864 -6.91358,-8.0859 z m 0,0 c 0,-6.002 3.10906,-8.1307 6.91358,-8.1307 3.80452,0 6.91358,2.1299 6.91358,8.1307 0,5.9995 -3.10906,8.0859 -6.91358,8.0859 -3.80452,0 -6.91358,-2.0864 -6.91358,-8.0859 z"
     id="path9723"
     inkscape:connector-curvature="0"
     style="fill:none;stroke:#f58220;stroke-width:0.85568506;stroke-linecap:round;stroke-linejoin:round;stroke-miterlimit:22.92560005" /><path
     stroke-miterlimit="22.9256"
     d="m 176.22241,1599.9054 c -0.0652,-2.5005 2.23852,-5.4792 4.26091,-5.4574 -2.02239,-0.022 -4.32611,2.9569 -4.26091,5.4574 z m 0,5.6965 v -11.1527 11.1527 z"
     id="path9725"
     inkscape:connector-curvature="0"
     style="fill:none;stroke:#f58220;stroke-width:0.85568506;stroke-linecap:round;stroke-linejoin:round;stroke-miterlimit:22.92560005" /><path
     stroke-miterlimit="22.9256"
     d="m 188.71901,1605.7323 c -1.80507,-0.065 -3.23946,-0.629 -3.23946,-2.6309 0,-2.0224 1.21827,-2.8688 3.52199,-3.0873 2.28319,-0.2186 3.30465,-0.5651 4.39132,-0.8694 -1.08667,0.3043 -2.10933,0.6508 -4.39132,0.8694 -2.30372,0.2185 -3.52199,1.0649 -3.52199,3.0873 -10e-4,2.0007 1.43439,2.5657 3.23946,2.6309 1.78333,0.066 4.02185,-2.0429 4.67385,-2.9786 -0.652,0.9345 -2.89173,3.0438 -4.67385,2.9786 z m 4.67385,-1.5442 v -7.1527 c 0,-0.9128 -0.4564,-2.6514 -3.39159,-2.6514 -2.9352,0 -4.02186,1.3257 -4.02186,2.6949 0,-1.3704 1.08666,-2.6949 4.02186,-2.6949 2.93519,0 3.39159,1.7386 3.39159,2.6514 v 7.1527 c 0,1.3052 1.54305,1.4138 1.54305,1.4138 0,0 -1.54305,-0.1086 -1.54305,-1.4138 z"
     id="path9727"
     inkscape:connector-curvature="0"
     style="fill:none;stroke:#f58220;stroke-width:0.85568506;stroke-linecap:round;stroke-linejoin:round;stroke-miterlimit:22.92560005" /><path
     stroke-miterlimit="22.9256"
     d="m 210.4317,1605.6019 c 0,0 0,-7.2613 0,-8.2622 0,-0.9997 -0.99973,-2.8688 -3.76106,-2.8917 -2.78306,-0.023 -4.23918,2.131 -4.23918,4.1305 0,-1.9995 1.45733,-4.1523 4.23918,-4.1305 2.76133,0.023 3.76106,1.8907 3.76106,2.8917 0,1.0009 0,8.2622 0,8.2622 z m -8.00024,0 v -11.1527 11.1527 z"
     id="path9729"
     inkscape:connector-curvature="0"
     style="fill:none;stroke:#f58220;stroke-width:0.85568506;stroke-linecap:round;stroke-linejoin:round;stroke-miterlimit:22.92560005" /><path
     stroke-miterlimit="22.9256"
     d="m 221.2971,1594.3405 c 2.52226,0 4.60865,1.2605 4.60865,5.6096 0,4.3478 -2.0876,5.6084 -4.60865,5.6084 -2.52105,0 -4.58692,-1.2606 -4.58692,-5.6084 0,-4.3491 2.06587,-5.6096 4.58692,-5.6096 z m 0,0 c 2.52226,0 4.60865,1.2605 4.60865,5.6096 0,4.3478 -2.0876,5.6084 -4.60865,5.6084 -2.52105,0 -4.58692,-1.2606 -4.58692,-5.6084 0,-4.3491 2.06587,-5.6096 4.58692,-5.6096 z m -3.93492,13.5217 c 0.23906,1.304 1.82559,2.0429 4.00012,2.131 2.21679,0.065 4.54345,-1.566 4.54345,-3.5871 0,-2.0442 0,-11.8929 0,-11.8929 0,0 0,9.8475 0,11.8929 0,2.0211 -2.32666,3.6511 -4.54345,3.5871 -2.17453,-0.087 -3.76106,-0.827 -4.00012,-2.131 z"
     id="path9731"
     inkscape:connector-curvature="0"
     style="fill:none;stroke:#f58220;stroke-width:0.85568506;stroke-linecap:round;stroke-linejoin:round;stroke-miterlimit:22.92560005" /><path
     stroke-miterlimit="22.9256"
     d="m 240.77127,1599.6458 c 0,-2.4136 -0.95626,-5.5009 -4.41305,-5.5009 -3.43506,0 -5.32585,2.3472 -5.32585,5.9344 0,3.6089 2.43533,5.5226 5.32585,5.4357 2.91346,-0.087 4.17398,-2.3484 4.32612,-3.1525 -0.15214,0.8041 -1.41266,3.0656 -4.32612,3.1525 -2.89173,0.087 -5.32585,-1.8268 -5.32585,-5.4357 0,-3.5872 1.89079,-5.9344 5.32585,-5.9344 3.45679,0 4.41305,3.0873 4.41305,5.5009 h -9.71837 9.71837 z"
     id="path9733"
     inkscape:connector-curvature="0"
     style="fill:none;stroke:#f58220;stroke-width:0.85568506;stroke-linecap:round;stroke-linejoin:round;stroke-miterlimit:22.92560005" /><path
     stroke-miterlimit="22.9256"
     d="m 248.48415,1598.7318 v -1.1953 1.1953 z m 0,6.8701 v -1.1953 1.1953 z"
     id="path9735"
     inkscape:connector-curvature="0"
     style="fill:none;stroke:#f58220;stroke-width:0.85568506;stroke-linecap:round;stroke-linejoin:round;stroke-miterlimit:22.92560005" /><path
     stroke-miterlimit="22.9256"
     d="m 270.99976,1605.6019 -4.41305,-11.1527 4.41305,11.1527 4.45651,-11.1527 -4.45651,11.1527 z"
     id="path9737"
     inkscape:connector-curvature="0"
     style="fill:none;stroke:#f58220;stroke-width:0.85568506;stroke-linecap:round;stroke-linejoin:round;stroke-miterlimit:22.92560005" /><path
     stroke-miterlimit="22.9256"
     d="m 280.5829,1599.6458 h 9.71837 c 0,-2.4136 -0.95626,-5.5009 -4.41305,-5.5009 -3.43506,0 -5.32585,2.3472 -5.32585,5.9344 0,3.6089 2.43533,5.5226 5.32585,5.4357 2.91346,-0.087 4.17398,-2.3484 4.32612,-3.1525 -0.15214,0.8041 -1.41266,3.0656 -4.32612,3.1525 -2.89173,0.087 -5.32585,-1.8268 -5.32585,-5.4357 0,-3.5872 1.89079,-5.9344 5.32585,-5.9344 3.45679,0 4.41305,3.0873 4.41305,5.5009 h -9.71837 z"
     id="path9739"
     inkscape:connector-curvature="0"
     style="fill:none;stroke:#f58220;stroke-width:0.85568506;stroke-linecap:round;stroke-linejoin:round;stroke-miterlimit:22.92560005" /><path
     stroke-miterlimit="22.9256"
     d="m 304.51359,1602.0582 c -0.0652,1.8268 -2.0224,3.5449 -3.86972,3.5449 -1.8268,0 -4.97812,-0.3042 -4.97812,-5.7605 0,-5.4357 3.52199,-5.5009 5.06505,-5.5009 1.54426,0 3.58719,1.1953 3.71759,2.7179 -0.1304,-1.5226 -2.17333,-2.7179 -3.71759,-2.7179 -1.54306,0 -5.06505,0.065 -5.06505,5.5009 0,5.4575 3.15132,5.7605 4.97812,5.7605 1.84853,0 3.80452,-1.7193 3.86972,-3.5449 z"
     id="path9741"
     inkscape:connector-curvature="0"
     style="fill:none;stroke:#f58220;stroke-width:0.85568506;stroke-linecap:round;stroke-linejoin:round;stroke-miterlimit:22.92560005" /><path
     stroke-miterlimit="22.9256"
     d="m 309.61848,1594.3405 h 4.54345 -4.54345 z m 4.49998,11.1528 c -1.06493,0.064 -2.218,0.1086 -2.218,-1.3487 0,-1.4791 0,-13.9129 0,-13.9129 0,0 0,12.435 0,13.9129 0,1.4573 1.15307,1.4127 2.218,1.3487 z"
     id="path9743"
     inkscape:connector-curvature="0"
     style="fill:none;stroke:#f58220;stroke-width:0.85568506;stroke-linecap:round;stroke-linejoin:round;stroke-miterlimit:22.92560005" /><path
     stroke-miterlimit="22.9256"
     d="m 319.05069,1599.9054 c 0,-4.3925 2.23852,-5.6748 4.93465,-5.6748 2.71786,0 4.93465,1.2823 4.93465,5.6748 0,4.4131 -2.21679,5.6965 -4.93465,5.6965 -2.69492,0 -4.93465,-1.2822 -4.93465,-5.6965 z m 0,0 c 0,-4.3925 2.23852,-5.6748 4.93465,-5.6748 2.71786,0 4.93465,1.2823 4.93465,5.6748 0,4.4131 -2.21679,5.6965 -4.93465,5.6965 -2.69492,0 -4.93465,-1.2822 -4.93465,-5.6965 z"
     id="path9745"
     inkscape:connector-curvature="0"
     style="fill:none;stroke:#f58220;stroke-width:0.85568506;stroke-linecap:round;stroke-linejoin:round;stroke-miterlimit:22.92560005" /><path
     stroke-miterlimit="22.9256"
     d="m 336.50247,1599.9054 c -0.0652,-2.5005 2.23852,-5.4792 4.26091,-5.4574 -2.02119,-0.022 -4.32611,2.9569 -4.26091,5.4574 z m 0,5.6965 v -11.1527 11.1527 z"
     id="path9747"
     inkscape:connector-curvature="0"
     style="fill:none;stroke:#f58220;stroke-width:0.85568506;stroke-linecap:round;stroke-linejoin:round;stroke-miterlimit:22.92560005" /><path
     stroke-miterlimit="22.9256"
     d="m 356.64795,1599.6458 h 9.71837 c 0,-2.4136 -0.95626,-5.5009 -4.41305,-5.5009 -3.43506,0 -5.32585,2.3472 -5.32585,5.9344 0,3.6089 2.43533,5.5226 5.32585,5.4357 2.91346,-0.087 4.17399,-2.3484 4.32612,-3.1525 -0.15213,0.8041 -1.41266,3.0656 -4.32612,3.1525 -2.89173,0.087 -5.32585,-1.8268 -5.32585,-5.4357 0,-3.5872 1.89079,-5.9344 5.32585,-5.9344 3.45679,0 4.41305,3.0873 4.41305,5.5009 h -9.71837 z"
     id="path9749"
     inkscape:connector-curvature="0"
     style="fill:none;stroke:#f58220;stroke-width:0.85568506;stroke-linecap:round;stroke-linejoin:round;stroke-miterlimit:22.92560005" /><path
     stroke-miterlimit="22.9256"
     d="m 371.7308,1594.3405 h 4.54345 -4.54345 z m 4.50119,11.1528 c -1.06492,0.064 -2.21799,0.1086 -2.21799,-1.3487 0,-1.4791 0,-13.9129 0,-13.9129 0,0 0,12.435 0,13.9129 0,1.4573 1.15186,1.4127 2.21799,1.3487 z"
     id="path9751"
     inkscape:connector-curvature="0"
     style="fill:none;stroke:#f58220;stroke-width:0.85568506;stroke-linecap:round;stroke-linejoin:round;stroke-miterlimit:22.92560005" /><path
     stroke-miterlimit="22.9256"
     d="m 386.14113,1605.6019 c -1.82679,0 -4.97932,-0.3042 -4.97932,-5.7605 0,-5.4357 3.52199,-5.5009 5.06505,-5.5009 1.54306,0 3.58719,1.1953 3.71759,2.7179 -0.1304,-1.5226 -2.17453,-2.7179 -3.71759,-2.7179 -1.54306,0 -5.06505,0.065 -5.06505,5.5009 10e-4,5.4563 3.15373,5.7605 4.97932,5.7605 1.84733,0 3.80452,-1.7181 3.86972,-3.5449 -0.0652,1.8268 -2.02119,3.5449 -3.86972,3.5449 z"
     id="path9753"
     inkscape:connector-curvature="0"
     style="fill:none;stroke:#f58220;stroke-width:0.85568506;stroke-linecap:round;stroke-linejoin:round;stroke-miterlimit:22.92560005" /><path
     stroke-miterlimit="22.9256"
     d="m 397.46414,1605.6019 v -15.6745 15.6745 z m 8.13064,0 c 0,0 0,-5.653 0,-7.6307 0,-1.9778 -1.19533,-3.4786 -3.52199,-3.522 -2.37013,-0.043 -4.60865,1.3909 -4.60865,3.2829 0,-1.8908 2.23852,-3.3264 4.60865,-3.2829 2.32545,0.043 3.52199,1.543 3.52199,3.522 0,1.9789 0,7.6307 0,7.6307 z"
     id="path9755"
     inkscape:connector-curvature="0"
     style="fill:none;stroke:#f58220;stroke-width:0.85568506;stroke-linecap:round;stroke-linejoin:round;stroke-miterlimit:22.92560005" /><path
     stroke-miterlimit="10"
     d="m 156.96678,1623.6163 h 6.0213 c 3.1308,0 4.41306,-1.8907 4.34786,-3.7827 -0.0869,-1.8908 -1.41266,-3.8275 -4.30439,-3.8275 h -6.06477 v 15.6745 h 6.67451 c 2.47759,0 4.43478,-1.4791 4.43478,-3.9567 -0.0435,-2.4788 -2.10933,-4.1076 -5.08678,-4.1076 2.97866,0 5.04332,1.63 5.08678,4.1076 0,2.4788 -1.95719,3.9567 -4.43478,3.9567 h -6.67451 v -15.6745 h 6.06477 c 2.89173,0 4.21745,1.9367 4.30439,3.8275 0.0652,1.8908 -1.21706,3.7827 -4.34786,3.7827 h -6.0213 z"
     id="path9757"
     inkscape:connector-curvature="0"
     style="fill:none;stroke:#000000;stroke-width:1.20740092;stroke-miterlimit:10" /><path
     stroke-miterlimit="10"
     d="m 175.76601,1631.6818 v -15.6745 15.6745 z"
     id="path9759"
     inkscape:connector-curvature="0"
     style="fill:none;stroke:#000000;stroke-width:1.20740092;stroke-miterlimit:10" /><path
     stroke-miterlimit="10"
     d="m 186.24142,1631.811 c -1.80506,-0.064 -3.23946,-0.6291 -3.23946,-2.6297 0,-2.0224 1.21827,-2.87 3.52199,-3.0874 2.2832,-0.2185 3.30466,-0.5662 4.39132,-0.8705 -1.08666,0.3043 -2.10933,0.652 -4.39132,0.8705 -2.30372,0.2174 -3.52199,1.065 -3.52199,3.0874 0,2.0006 1.4344,2.5657 3.23946,2.6297 1.78333,0.066 4.02185,-2.0417 4.67385,-2.9787 -0.652,0.937 -2.89173,3.0451 -4.67385,2.9787 z m 4.67385,-1.5419 v -7.1526 c 0,-0.914 -0.4564,-2.6527 -3.39159,-2.6527 -2.93519,0 -4.02185,1.327 -4.02185,2.6949 0,-1.3691 1.08666,-2.6949 4.02185,-2.6949 2.93519,0 3.39159,1.7387 3.39159,2.6527 v 7.1526 c 0,1.304 1.54306,1.4127 1.54306,1.4127 0,0 -1.54306,-0.1087 -1.54306,-1.4127 z"
     id="path9761"
     inkscape:connector-curvature="0"
     style="fill:none;stroke:#000000;stroke-width:1.20740092;stroke-miterlimit:10" /><path
     stroke-miterlimit="10"
     d="m 202.5848,1631.6818 c -1.8268,0 -4.97932,-0.3043 -4.97932,-5.7605 0,-5.4357 3.52199,-5.4997 5.06504,-5.4997 1.54306,0 3.58719,1.1953 3.71759,2.7166 -0.1304,-1.5213 -2.17453,-2.7166 -3.71759,-2.7166 -1.54305,0 -5.06504,0.064 -5.06504,5.4997 0,5.4562 3.15252,5.7605 4.97932,5.7605 1.84732,0 3.80452,-1.7169 3.86972,-3.5449 -0.0652,1.828 -2.0224,3.5449 -3.86972,3.5449 z"
     id="path9763"
     inkscape:connector-curvature="0"
     style="fill:none;stroke:#000000;stroke-width:1.20740092;stroke-miterlimit:10" /><path
     stroke-miterlimit="10"
     d="m 213.9066,1631.6818 v -4.3913 l 3.00039,-2.9135 4.73905,7.3048 -4.73905,-7.3048 4.00012,-3.848 -7.00051,6.7615 v -11.2844 15.6757 z"
     id="path9765"
     inkscape:connector-curvature="0"
     style="fill:none;stroke:#000000;stroke-width:1.20740092;stroke-miterlimit:10" /><path
     stroke-miterlimit="10"
     d="m 229.16332,1624.8117 v -1.1954 1.1954 z m 0,6.8701 v -1.1953 1.1953 z"
     id="path9767"
     inkscape:connector-curvature="0"
     style="fill:none;stroke:#000000;stroke-width:1.20740092;stroke-miterlimit:10" /><path
     stroke-miterlimit="10"
     d="m 256.13665,1620.529 -4.45651,11.1516 -4.41306,-11.1516 4.41306,11.1516 4.45651,-11.1516 z"
     id="path9769"
     inkscape:connector-curvature="0"
     style="fill:none;stroke:#000000;stroke-width:1.20740092;stroke-miterlimit:10" /><path
     stroke-miterlimit="10"
     d="m 261.26207,1625.7245 h 9.71837 c 0,-2.4124 -0.95626,-5.4997 -4.41305,-5.4997 -3.43506,0 -5.32585,2.3459 -5.32585,5.9343 0,3.609 2.43533,5.5215 5.32585,5.4345 2.91346,-0.087 4.17398,-2.3471 4.32612,-3.1513 -0.15214,0.8042 -1.41266,3.0644 -4.32612,3.1513 -2.89173,0.087 -5.32585,-1.8255 -5.32585,-5.4345 0,-3.5884 1.89079,-5.9343 5.32585,-5.9343 3.45679,0 4.41305,3.0873 4.41305,5.4997 h -9.71837 z"
     id="path9771"
     inkscape:connector-curvature="0"
     style="fill:none;stroke:#000000;stroke-width:1.20740092;stroke-miterlimit:10" /><path
     stroke-miterlimit="10"
     d="m 281.32424,1631.6818 c -1.82679,0 -4.97932,-0.3043 -4.97932,-5.7605 0,-5.4357 3.52199,-5.4997 5.06505,-5.4997 1.54306,0 3.58719,1.1953 3.71759,2.7166 -0.1304,-1.5213 -2.17453,-2.7166 -3.71759,-2.7166 -1.54306,0 -5.06505,0.064 -5.06505,5.4997 0,5.4562 3.15253,5.7605 4.97932,5.7605 1.84733,0 3.80452,-1.7169 3.86972,-3.5449 -0.0652,1.828 -2.02239,3.5449 -3.86972,3.5449 z"
     id="path9773"
     inkscape:connector-curvature="0"
     style="fill:none;stroke:#000000;stroke-width:1.20740092;stroke-miterlimit:10" /><path
     stroke-miterlimit="10"
     d="m 290.29765,1620.4216 h 4.54345 -4.54345 z m 4.49998,11.1515 c -1.06493,0.065 -2.218,0.1087 -2.218,-1.3486 0,-1.4779 0,-13.9129 0,-13.9129 0,0 0,12.4362 0,13.9129 10e-4,1.4573 1.15307,1.4138 2.218,1.3486 z"
     id="path9775"
     inkscape:connector-curvature="0"
     style="fill:none;stroke:#000000;stroke-width:1.20740092;stroke-miterlimit:10" /><path
     stroke-miterlimit="10"
     d="m 299.72986,1625.9865 c 0,-4.3925 2.23852,-5.6748 4.93465,-5.6748 2.71786,0 4.93465,1.2823 4.93465,5.6748 0,4.4118 -2.21679,5.6953 -4.93465,5.6953 -2.69492,0 -4.93465,-1.2835 -4.93465,-5.6953 z m 0,0 c 0,-4.3925 2.23852,-5.6748 4.93465,-5.6748 2.71786,0 4.93465,1.2823 4.93465,5.6748 0,4.4118 -2.21679,5.6953 -4.93465,5.6953 -2.69492,0 -4.93465,-1.2835 -4.93465,-5.6953 z"
     id="path9777"
     inkscape:connector-curvature="0"
     style="fill:none;stroke:#000000;stroke-width:1.20740092;stroke-miterlimit:10" /><path
     stroke-miterlimit="10"
     d="m 317.18284,1625.9865 c -0.0652,-2.5005 2.23852,-5.4792 4.26092,-5.4575 -2.0224,-0.022 -4.32732,2.957 -4.26092,5.4575 z m 0,5.6953 v -11.1516 11.1516 z"
     id="path9779"
     inkscape:connector-curvature="0"
     style="fill:none;stroke:#000000;stroke-width:1.20740092;stroke-miterlimit:10" /><path
     stroke-miterlimit="10"
     d="m 342.28471,1631.6818 c -1.8268,0 -4.97932,-0.3043 -4.97932,-5.7605 0,-5.4357 3.52199,-5.4997 5.06504,-5.4997 1.54306,0 3.58719,1.1953 3.71759,2.7166 -0.1304,-1.5213 -2.17453,-2.7166 -3.71759,-2.7166 -1.54305,0 -5.06504,0.064 -5.06504,5.4997 0,5.4562 3.15252,5.7605 4.97932,5.7605 1.84732,0 3.80452,-1.7169 3.86972,-3.5449 -0.0652,1.828 -2.0224,3.5449 -3.86972,3.5449 z"
     id="path9781"
     inkscape:connector-curvature="0"
     style="fill:none;stroke:#000000;stroke-width:1.20740092;stroke-miterlimit:10" /><path
     stroke-miterlimit="10"
     d="m 352.36771,1620.4844 c 0,0 0,7.283 0,8.2839 0,0.9998 0.99973,2.8688 3.76106,2.8918 2.78306,0.022 4.26092,-2.1323 4.26092,-4.1318 0,1.9995 -1.47907,4.1523 -4.26092,4.1318 -2.76133,-0.023 -3.76106,-1.8908 -3.76106,-2.8918 0,-0.9997 0,-8.2839 0,-8.2839 z m 8.02198,0 v 11.1757 -11.1757 z"
     id="path9783"
     inkscape:connector-curvature="0"
     style="fill:none;stroke:#000000;stroke-width:1.20740092;stroke-miterlimit:10" /><path
     stroke-miterlimit="10"
     d="m 367.97216,1620.4216 h 4.54345 -4.54345 z m 4.49999,11.1515 c -1.06493,0.065 -2.218,0.1087 -2.218,-1.3486 0,-1.4779 0,-13.9129 0,-13.9129 0,0 0,12.4362 0,13.9129 0,1.4573 1.15307,1.4138 2.218,1.3486 z"
     id="path9785"
     inkscape:connector-curvature="0"
     style="fill:none;stroke:#000000;stroke-width:1.20740092;stroke-miterlimit:10" /><text
     id="text9787"
     x="152.2706"
     y="1739.3148"
     style="font-size:14.48881149px"><tspan
       x="152.2706"
       y="1739.3148"
       stroke-miterlimit="10"
       font-size="18"
       id="tspan9789"
       style="font-size:21.73321724px;fill:none;stroke:#000000;stroke-width:1.20740092;stroke-miterlimit:10;font-family:Eng_HelvLine">B.O.M.</tspan><tspan
       x="152.2706"
       y="1817.5553"
       stroke-miterlimit="10"
       font-size="18"
       id="tspan9791"
       style="font-size:21.73321724px;fill:none;stroke:#000000;stroke-width:1.20740092;stroke-miterlimit:10;font-family:Eng_HelvLine">For more information see https://github.com/gndelec/novena-mods</tspan></text>
<text
     stroke-miterlimit="10"
     font-size="18"
     id="text10263"
     style="font-size:21.73321724px;fill:none;stroke:#98258f;stroke-width:0.34229815;stroke-miterlimit:10;font-family:Eng_HelvLine"
     x="154.61826"
     y="1666.859">Purple: raster etch</text>
<rect
     style="fill:none;stroke:#000000;stroke-width:0.04606299;stroke-miterlimit:4;stroke-opacity:1;stroke-dasharray:none"
     id="rect8202"
     width="213.66142"
     height="74.409447"
     x="170.49045"
     y="1171.6938" /><path
     style="fill:none;stroke:#98258f;stroke-width:0.03543307000000000;stroke-miterlimit:4;stroke-opacity:0.92156863;stroke-dasharray:none;fill-opacity:1"
     d="m 166.94613,1168.1524 0,81.5 17.71875,0 185.3125,0 17.71875,0 0,-14.0938 0,-67.4062 -19.53051,0 0,67.4062 -181.77166,6e-4 0,-67.4068 z"
     id="rect8204"
     inkscape:connector-curvature="0"
     sodipodi:nodetypes="cccccccccccc" /><g
     id="g8836"
     transform="translate(-241.34532,1119.3317)"><path
       transform="matrix(1.913122,0,0,1.9157771,-403.24543,-655.79466)"
       d="m 460,389.6442 c 0,3.25453 -2.63832,5.89285 -5.89285,5.89285 -3.25454,0 -5.89286,-2.63832 -5.89286,-5.89285 0,-3.25454 2.63832,-5.89286 5.89286,-5.89286 3.25453,0 5.89285,2.63832 5.89285,5.89286 z"
       sodipodi:ry="5.8928571"
       sodipodi:rx="5.8928571"
       sodipodi:cy="389.6442"
       sodipodi:cx="454.10715"
       id="path8211"
       style="fill:none;stroke:#000000;stroke-width:0.04606299;stroke-miterlimit:4;stroke-opacity:1;stroke-dasharray:none"
       sodipodi:type="arc" /><use
       height="1417.3228"
       width="2125.9841"
       transform="translate(35.433,0)"
       id="use8213"
       xlink:href="#path8211"
       y="0"
       x="0" /><use
       height="1417.3228"
       width="2125.9841"
       transform="translate(35.433,0)"
       id="use8215"
       xlink:href="#use8213"
       y="0"
       x="0" /><use
       height="1417.3228"
       width="2125.9841"
       transform="translate(35.433,0)"
       id="use8217"
       xlink:href="#use8215"
       y="0"
       x="0" /></g><g
     id="g8774"
     style="fill:none;fill-opacity:1;stroke:#98258f;stroke-opacity:0.92156863;stroke-width:0.03543307000000000;stroke-miterlimit:4;stroke-dasharray:none"
     transform="translate(-241.14143,1176.0245)"><path
       d="m 454.25055,2.54266 7.40039,0 0,0.99609 -3.10547,0 0,7.75195 -1.18945,0 0,-7.75195 -3.10547,0 0,-0.99609"
       style="font-size:12px;font-style:normal;font-weight:normal;line-height:125%;letter-spacing:0px;word-spacing:0px;fill:none;fill-opacity:1;stroke:#98258f;font-family:Sans;stroke-opacity:0.92156863;stroke-width:0.03543307000000000;stroke-miterlimit:4;stroke-dasharray:none"
       id="path8738"
       inkscape:connector-curvature="0" /><path
       d="m 462.3775,2.54266 1.27149,0 2.17382,3.25195 2.18555,-3.25195 1.27149,0 -2.8125,4.20117 3,4.54687 -1.27149,0 -2.46094,-3.7207 -2.47851,3.7207 -1.27735,0 3.12305,-4.66992 -2.72461,-4.07812"
       style="font-size:12px;font-style:normal;font-weight:normal;line-height:125%;letter-spacing:0px;word-spacing:0px;fill:none;fill-opacity:1;stroke:#98258f;font-family:Sans;stroke-opacity:0.92156863;stroke-width:0.03543307000000000;stroke-miterlimit:4;stroke-dasharray:none"
       id="path8740"
       inkscape:connector-curvature="0" /><path
       d="m 471.33649,10.29461 1.93359,0 0,-6.67383 -2.10352,0.42188 0,-1.07813 2.0918,-0.42187 1.1836,0 0,7.75195 1.93359,0 0,0.99609 -5.03906,0 0,-0.99609"
       style="font-size:12px;font-style:normal;font-weight:normal;line-height:125%;letter-spacing:0px;word-spacing:0px;fill:none;fill-opacity:1;stroke:#98258f;font-family:Sans;stroke-opacity:0.92156863;stroke-width:0.03543307000000000;stroke-miterlimit:4;stroke-dasharray:none"
       id="path8742"
       inkscape:connector-curvature="0" /></g><g
     id="g8779"
     style="fill:none;fill-opacity:1;stroke:#98258f;stroke-opacity:0.92156863;stroke-width:0.03543307000000000;stroke-miterlimit:4;stroke-dasharray:none"
     transform="translate(-232.68499,1176.0245)"><path
       d="m 481.27399,2.54266 7.40039,0 0,0.99609 -3.10547,0 0,7.75195 -1.18945,0 0,-7.75195 -3.10547,0 0,-0.99609"
       style="font-size:12px;font-style:normal;font-weight:normal;line-height:125%;letter-spacing:0px;word-spacing:0px;fill:none;fill-opacity:1;stroke:#98258f;font-family:Sans;stroke-opacity:0.92156863;stroke-width:0.03543307000000000;stroke-miterlimit:4;stroke-dasharray:none"
       id="path8744"
       inkscape:connector-curvature="0" /><path
       d="m 489.40094,2.54266 1.27148,0 2.17383,3.25195 2.18555,-3.25195 1.27148,0 -2.8125,4.20117 3,4.54687 -1.27148,0 -2.46094,-3.7207 -2.47851,3.7207 -1.27735,0 3.12305,-4.66992 -2.72461,-4.07812"
       style="font-size:12px;font-style:normal;font-weight:normal;line-height:125%;letter-spacing:0px;word-spacing:0px;fill:none;fill-opacity:1;stroke:#98258f;font-family:Sans;stroke-opacity:0.92156863;stroke-width:0.03543307000000000;stroke-miterlimit:4;stroke-dasharray:none"
       id="path8746"
       inkscape:connector-curvature="0" /><path
       d="m 499.17438,10.29461 4.13086,0 0,0.99609 -5.55469,0 0,-0.99609 c 0.44922,-0.46484 1.06054,-1.08789 1.83398,-1.86914 0.77734,-0.78515 1.26562,-1.29101 1.46485,-1.51758 0.3789,-0.42578 0.64257,-0.78515 0.79101,-1.07813 0.15234,-0.29686 0.22851,-0.58788 0.22852,-0.87304 -1e-5,-0.46484 -0.16407,-0.84374 -0.49219,-1.13672 -0.32422,-0.29296 -0.74805,-0.43945 -1.27148,-0.43945 -0.3711,0 -0.76368,0.0645 -1.17774,0.19336 -0.41016,0.12891 -0.84961,0.32422 -1.31836,0.58593 l 0,-1.19531 c 0.47656,-0.1914 0.92188,-0.33593 1.33594,-0.43359 0.41406,-0.0977 0.79297,-0.14648 1.13672,-0.14649 0.90624,10e-6 1.6289,0.22657 2.16797,0.67969 0.53905,0.45313 0.80859,1.0586 0.80859,1.81641 0,0.35938 -0.0684,0.70117 -0.20508,1.02539 -0.13281,0.32031 -0.37696,0.69922 -0.73242,1.13672 -0.0977,0.11328 -0.40821,0.44141 -0.93164,0.98437 -0.52344,0.53907 -1.26172,1.29492 -2.21484,2.26758"
       style="font-size:12px;font-style:normal;font-weight:normal;line-height:125%;letter-spacing:0px;word-spacing:0px;fill:none;fill-opacity:1;stroke:#98258f;font-family:Sans;stroke-opacity:0.92156863;stroke-width:0.03543307000000000;stroke-miterlimit:4;stroke-dasharray:none"
       id="path8748"
       inkscape:connector-curvature="0" /></g><g
     id="g8784"
     style="fill:none;fill-opacity:1;stroke:#98258f;stroke-opacity:0.92156863;stroke-width:0.03543307000000000;stroke-miterlimit:4;stroke-dasharray:none"
     transform="translate(-225.43265,1176.0245)"><path
       d="m 513.65875,7.18914 c 0.2539,0.0859 0.5,0.26953 0.73828,0.55078 0.24218,0.28125 0.48437,0.66797 0.72657,1.16016 l 1.20117,2.39062 -1.27149,0 -1.11914,-2.24414 c -0.28906,-0.58593 -0.57031,-0.9746 -0.84375,-1.16601 -0.26953,-0.19141 -0.63867,-0.28711 -1.10742,-0.28711 l -1.28906,0 0,3.69726 -1.1836,0 0,-8.74804 2.67188,0 c 1,0 1.74609,0.20899 2.23828,0.62695 0.49218,0.41797 0.73828,1.04883 0.73828,1.89258 0,0.55078 -0.12891,1.00781 -0.38672,1.37109 -0.25391,0.36329 -0.625,0.61524 -1.11328,0.75586 m -2.96484,-3.67383 0,3.10547 1.48828,0 c 0.57031,1e-5 1,-0.13085 1.28906,-0.39258 0.29297,-0.26562 0.43945,-0.65429 0.43946,-1.16601 -10e-6,-0.51172 -0.14649,-0.89648 -0.43946,-1.1543 -0.28906,-0.26171 -0.71875,-0.39257 -1.28906,-0.39258 l -1.48828,0"
       style="font-size:12px;font-style:normal;font-weight:normal;line-height:125%;letter-spacing:0px;word-spacing:0px;fill:none;fill-opacity:1;stroke:#98258f;font-family:Sans;stroke-opacity:0.92156863;stroke-width:0.03543307000000000;stroke-miterlimit:4;stroke-dasharray:none"
       id="path8750"
       inkscape:connector-curvature="0" /><path
       d="m 517.43219,2.54266 1.27148,0 2.17383,3.25195 2.18555,-3.25195 1.27148,0 -2.8125,4.20117 3,4.54687 -1.27148,0 -2.46094,-3.7207 -2.47851,3.7207 -1.27735,0 3.12305,-4.66992 -2.72461,-4.07812"
       style="font-size:12px;font-style:normal;font-weight:normal;line-height:125%;letter-spacing:0px;word-spacing:0px;fill:none;fill-opacity:1;stroke:#98258f;font-family:Sans;stroke-opacity:0.92156863;stroke-width:0.03543307000000000;stroke-miterlimit:4;stroke-dasharray:none"
       id="path8752"
       inkscape:connector-curvature="0" /><path
       d="m 526.39117,10.29461 1.9336,0 0,-6.67383 -2.10352,0.42188 0,-1.07813 2.0918,-0.42187 1.18359,0 0,7.75195 1.9336,0 0,0.99609 -5.03907,0 0,-0.99609"
       style="font-size:12px;font-style:normal;font-weight:normal;line-height:125%;letter-spacing:0px;word-spacing:0px;fill:none;fill-opacity:1;stroke:#98258f;font-family:Sans;stroke-opacity:0.92156863;stroke-width:0.03543307000000000;stroke-miterlimit:4;stroke-dasharray:none"
       id="path8754"
       inkscape:connector-curvature="0" /></g><g
     id="g8789"
     style="fill:none;fill-opacity:1;stroke:#98258f;stroke-opacity:0.92156863;stroke-width:0.03543307000000000;stroke-miterlimit:4;stroke-dasharray:none"
     transform="translate(-217.98403,1176.0245)"><path
       d="m 541.69,7.18914 c 0.2539,0.0859 0.5,0.26953 0.73828,0.55078 0.24218,0.28125 0.48437,0.66797 0.72657,1.16016 l 1.20117,2.39062 -1.27149,0 -1.11914,-2.24414 c -0.28906,-0.58593 -0.57031,-0.9746 -0.84375,-1.16601 -0.26953,-0.19141 -0.63867,-0.28711 -1.10742,-0.28711 l -1.28906,0 0,3.69726 -1.1836,0 0,-8.74804 2.67188,0 c 1,0 1.74609,0.20899 2.23828,0.62695 0.49218,0.41797 0.73828,1.04883 0.73828,1.89258 0,0.55078 -0.12891,1.00781 -0.38672,1.37109 -0.25391,0.36329 -0.625,0.61524 -1.11328,0.75586 m -2.96484,-3.67383 0,3.10547 1.48828,0 c 0.57031,1e-5 1,-0.13085 1.28906,-0.39258 0.29297,-0.26562 0.43945,-0.65429 0.43946,-1.16601 -10e-6,-0.51172 -0.14649,-0.89648 -0.43946,-1.1543 -0.28906,-0.26171 -0.71875,-0.39257 -1.28906,-0.39258 l -1.48828,0"
       style="font-size:12px;font-style:normal;font-weight:normal;line-height:125%;letter-spacing:0px;word-spacing:0px;fill:none;fill-opacity:1;stroke:#98258f;font-family:Sans;stroke-opacity:0.92156863;stroke-width:0.03543307000000000;stroke-miterlimit:4;stroke-dasharray:none"
       id="path8756"
       inkscape:connector-curvature="0" /><path
       d="m 545.46344,2.54266 1.27148,0 2.17383,3.25195 2.18555,-3.25195 1.27148,0 -2.8125,4.20117 3,4.54687 -1.27148,0 -2.46094,-3.7207 -2.47851,3.7207 -1.27735,0 3.12305,-4.66992 -2.72461,-4.07812"
       style="font-size:12px;font-style:normal;font-weight:normal;line-height:125%;letter-spacing:0px;word-spacing:0px;fill:none;fill-opacity:1;stroke:#98258f;font-family:Sans;stroke-opacity:0.92156863;stroke-width:0.03543307000000000;stroke-miterlimit:4;stroke-dasharray:none"
       id="path8758"
       inkscape:connector-curvature="0" /><path
       d="m 555.23688,10.29461 4.13086,0 0,0.99609 -5.55469,0 0,-0.99609 c 0.44922,-0.46484 1.06054,-1.08789 1.83398,-1.86914 0.77734,-0.78515 1.26562,-1.29101 1.46485,-1.51758 0.3789,-0.42578 0.64257,-0.78515 0.79101,-1.07813 0.15234,-0.29686 0.22851,-0.58788 0.22852,-0.87304 -10e-6,-0.46484 -0.16407,-0.84374 -0.49219,-1.13672 -0.32422,-0.29296 -0.74805,-0.43945 -1.27148,-0.43945 -0.3711,0 -0.76368,0.0645 -1.17774,0.19336 -0.41016,0.12891 -0.84961,0.32422 -1.31836,0.58593 l 0,-1.19531 c 0.47656,-0.1914 0.92188,-0.33593 1.33594,-0.43359 0.41406,-0.0977 0.79297,-0.14648 1.13672,-0.14649 0.90624,10e-6 1.6289,0.22657 2.16797,0.67969 0.53905,0.45313 0.80859,1.0586 0.80859,1.81641 0,0.35938 -0.0684,0.70117 -0.20508,1.02539 -0.13281,0.32031 -0.37696,0.69922 -0.73242,1.13672 -0.0977,0.11328 -0.40821,0.44141 -0.93164,0.98437 -0.52344,0.53907 -1.26172,1.29492 -2.21484,2.26758"
       style="font-size:12px;font-style:normal;font-weight:normal;line-height:125%;letter-spacing:0px;word-spacing:0px;fill:none;fill-opacity:1;stroke:#98258f;font-family:Sans;stroke-opacity:0.92156863;stroke-width:0.03543307000000000;stroke-miterlimit:4;stroke-dasharray:none"
       id="path8760"
       inkscape:connector-curvature="0" /></g></svg>